<?xml version="1.0"?>
<!-- Generated by SVGo and Plotinum VG -->
<svg width="4.1667in" height="4.1667in"
	xmlns="http://www.w3.org/2000/svg"
	xmlns:xlink="http://www.w3.org/1999/xlink">
<g transform="scale(1, -1) translate(0, -375)">
<path d="M0,0L375,0L375,375L0,375Z" style="fill:#FFFFFF" />
<text x="58.203" y="-0.23193" transform="scale(1, -1)"
	style="font-family:Times;font-weight:normal;font-style:normal;font-size:10pt">7.50</text>
<text x="192.97" y="-0.23193" transform="scale(1, -1)"
	style="font-family:Times;font-weight:normal;font-style:normal;font-size:10pt">10.00</text>
<text x="330.86" y="-0.23193" transform="scale(1, -1)"
	style="font-family:Times;font-weight:normal;font-style:normal;font-size:10pt">12.50</text>
<path d="M69.141,12.268L69.141,22.268" style="fill:none;stroke:#000000;stroke-width:0.625" />
<path d="M207.03,12.268L207.03,22.268" style="fill:none;stroke:#000000;stroke-width:0.625" />
<path d="M344.92,12.268L344.92,22.268" style="fill:none;stroke:#000000;stroke-width:0.625" />
<path d="M96.719,17.268L96.719,22.268" style="fill:none;stroke:#000000;stroke-width:0.625" />
<path d="M124.3,17.268L124.3,22.268" style="fill:none;stroke:#000000;stroke-width:0.625" />
<path d="M151.88,17.268L151.88,22.268" style="fill:none;stroke:#000000;stroke-width:0.625" />
<path d="M179.45,17.268L179.45,22.268" style="fill:none;stroke:#000000;stroke-width:0.625" />
<path d="M234.61,17.268L234.61,22.268" style="fill:none;stroke:#000000;stroke-width:0.625" />
<path d="M262.19,17.268L262.19,22.268" style="fill:none;stroke:#000000;stroke-width:0.625" />
<path d="M289.77,17.268L289.77,22.268" style="fill:none;stroke:#000000;stroke-width:0.625" />
<path d="M317.34,17.268L317.34,22.268" style="fill:none;stroke:#000000;stroke-width:0.625" />
<path d="M372.5,17.268L372.5,22.268" style="fill:none;stroke:#000000;stroke-width:0.625" />
<path d="M41.562,22.268L372.5,22.268" style="fill:none;stroke:#000000;stroke-width:0.625" />
<text x="6.25" y="-62.783" transform="scale(1, -1)"
	style="font-family:Times;font-weight:normal;font-style:normal;font-size:10pt">20</text>
<text x="6.25" y="-212.2" transform="scale(1, -1)"
	style="font-family:Times;font-weight:normal;font-style:normal;font-size:10pt">80</text>
<text x="0" y="-361.62" transform="scale(1, -1)"
	style="font-family:Times;font-weight:normal;font-style:normal;font-size:10pt">140</text>
<path d="M21.875,68.685L31.875,68.685" style="fill:none;stroke:#000000;stroke-width:0.625" />
<path d="M21.875,218.1L31.875,218.1" style="fill:none;stroke:#000000;stroke-width:0.625" />
<path d="M21.875,367.52L31.875,367.52" style="fill:none;stroke:#000000;stroke-width:0.625" />
<path d="M26.875,143.39L31.875,143.39" style="fill:none;stroke:#000000;stroke-width:0.625" />
<path d="M26.875,292.81L31.875,292.81" style="fill:none;stroke:#000000;stroke-width:0.625" />
<path d="M31.875,31.331L31.875,372.5" style="fill:none;stroke:#000000;stroke-width:0.625" />
<path d="M44.062,31.331A2.5,2.5 0 1 1 39.062,31.331A2.5,2.5 0 1 1 44.062,31.331Z" style="fill:none;stroke:#000000;stroke-width:0.625" />
<path d="M57.852,36.311L57.852,36.311A2.5,2.5 0 1 1 52.852,36.311A2.5,2.5 0 1 1 57.852,36.311Z" style="fill:none;stroke:#000000;stroke-width:0.625" />
<path d="M71.641,37.556A2.5,2.5 0 1 1 66.641,37.556A2.5,2.5 0 1 1 71.641,37.556Z" style="fill:none;stroke:#000000;stroke-width:0.625" />
<path d="M85.43,43.782A2.5,2.5 0 1 1 80.43,43.782A2.5,2.5 0 1 1 85.43,43.782Z" style="fill:none;stroke:#000000;stroke-width:0.625" />
<path d="M99.219,43.782L99.219,43.782A2.5,2.5 0 1 1 94.219,43.782A2.5,2.5 0 1 1 99.219,43.782Z" style="fill:none;stroke:#000000;stroke-width:0.625" />
<path d="M113.01,56.233A2.5,2.5 0 1 1 108.01,56.233A2.5,2.5 0 1 1 113.01,56.233Z" style="fill:none;stroke:#000000;stroke-width:0.625" />
<path d="M126.8,68.685A2.5,2.5 0 1 1 121.8,68.685A2.5,2.5 0 1 1 126.8,68.685Z" style="fill:none;stroke:#000000;stroke-width:0.625" />
<path d="M140.59,81.136A2.5,2.5 0 1 1 135.59,81.136A2.5,2.5 0 1 1 140.59,81.136Z" style="fill:none;stroke:#000000;stroke-width:0.625" />
<path d="M154.38,106.04A2.5,2.5 0 1 1 149.38,106.04A2.5,2.5 0 1 1 154.38,106.04Z" style="fill:none;stroke:#000000;stroke-width:0.625" />
<path d="M168.16,135.92A2.5,2.5 0 1 1 163.16,135.92A2.5,2.5 0 1 1 168.16,135.92Z" style="fill:none;stroke:#000000;stroke-width:0.625" />
<path d="M181.95,167.8A2.5,2.5 0 1 1 176.95,167.8A2.5,2.5 0 1 1 181.95,167.8Z" style="fill:none;stroke:#000000;stroke-width:0.625" />
<path d="M195.74,208.14L195.74,208.14A2.5,2.5 0 1 1 190.74,208.14A2.5,2.5 0 1 1 195.74,208.14Z" style="fill:none;stroke:#000000;stroke-width:0.625" />
<path d="M209.53,240.51A2.5,2.5 0 1 1 204.53,240.51A2.5,2.5 0 1 1 209.53,240.51Z" style="fill:none;stroke:#000000;stroke-width:0.625" />
<path d="M223.32,292.81L223.32,292.81A2.5,2.5 0 1 1 218.32,292.81A2.5,2.5 0 1 1 223.32,292.81Z" style="fill:none;stroke:#000000;stroke-width:0.625" />
<path d="M237.11,305.26A2.5,2.5 0 1 1 232.11,305.26A2.5,2.5 0 1 1 237.11,305.26Z" style="fill:none;stroke:#000000;stroke-width:0.625" />
<path d="M250.9,322.69A2.5,2.5 0 1 1 245.9,322.69A2.5,2.5 0 1 1 250.9,322.69Z" style="fill:none;stroke:#000000;stroke-width:0.625" />
<path d="M264.69,330.17A2.5,2.5 0 1 1 259.69,330.17A2.5,2.5 0 1 1 264.69,330.17Z" style="fill:none;stroke:#000000;stroke-width:0.625" />
<path d="M278.48,335.15A2.5,2.5 0 1 1 273.48,335.15A2.5,2.5 0 1 1 278.48,335.15Z" style="fill:none;stroke:#000000;stroke-width:0.625" />
<path d="M292.27,337.64A2.5,2.5 0 1 1 287.27,337.64A2.5,2.5 0 1 1 292.27,337.64Z" style="fill:none;stroke:#000000;stroke-width:0.625" />
<path d="M306.05,337.64A2.5,2.5 0 1 1 301.05,337.64A2.5,2.5 0 1 1 306.05,337.64Z" style="fill:none;stroke:#000000;stroke-width:0.625" />
<path d="M319.84,347.6A2.5,2.5 0 1 1 314.84,347.6A2.5,2.5 0 1 1 319.84,347.6Z" style="fill:none;stroke:#000000;stroke-width:0.625" />
<path d="M333.63,355.07A2.5,2.5 0 1 1 328.63,355.07A2.5,2.5 0 1 1 333.63,355.07Z" style="fill:none;stroke:#000000;stroke-width:0.625" />
<path d="M347.42,355.07A2.5,2.5 0 1 1 342.42,355.07A2.5,2.5 0 1 1 347.42,355.07Z" style="fill:none;stroke:#000000;stroke-width:0.625" />
<path d="M361.21,362.54L361.21,362.54A2.5,2.5 0 1 1 356.21,362.54A2.5,2.5 0 1 1 361.21,362.54Z" style="fill:none;stroke:#000000;stroke-width:0.625" />
<path d="M375,372.5L375,372.5A2.5,2.5 0 1 1 370,372.5A2.5,2.5 0 1 1 375,372.5Z" style="fill:none;stroke:#000000;stroke-width:0.625" />
</g>
</svg>
