<?xml version="1.0" encoding="UTF-8" standalone="no"?>
<!DOCTYPE svg PUBLIC "-//W3C//DTD SVG 1.1//EN"
 "http://www.w3.org/Graphics/SVG/1.1/DTD/svg11.dtd">
<!-- Generated by graphviz version 2.40.1 (20161225.0304)
 -->
<!-- Title: Path Pages: 1 -->
<svg width="490pt" height="620pt"
 viewBox="0.00 0.00 490.00 620.00" xmlns="http://www.w3.org/2000/svg" xmlns:xlink="http://www.w3.org/1999/xlink">
<g id="graph0" class="graph" transform="scale(1 1) rotate(0) translate(4 616)">
<title>Path</title>
<polygon fill="#101e3a" stroke="transparent" points="-4,4 -4,-616 486,-616 486,4 -4,4"/>
<!-- X_0 -->
<g id="node1" class="node">
<title>X_0</title>
<ellipse fill="none" stroke="#b3e2ef" cx="297" cy="-594" rx="27" ry="18"/>
<text text-anchor="middle" x="297" y="-589.8" font-family="Times,serif" font-size="14.00" fill="#b3e2ef">X_0</text>
</g>
<!-- O_3 -->
<g id="node4" class="node">
<title>O_3</title>
<ellipse fill="none" stroke="#b3e2ef" cx="241" cy="-522" rx="27" ry="18"/>
<text text-anchor="middle" x="241" y="-517.8" font-family="Times,serif" font-size="14.00" fill="#b3e2ef">O_3</text>
</g>
<!-- X_0&#45;&gt;O_3 -->
<g id="edge1" class="edge">
<title>X_0&#45;&gt;O_3</title>
<path fill="none" stroke="#b3e2ef" d="M280.4325,-579.7751C272.1383,-570.6559 262.3904,-558.5507 254.547,-547.7773"/>
<polygon fill="#b3e2ef" stroke="#b3e2ef" points="257.3449,-545.6714 248.7292,-539.5053 251.6191,-549.6984 257.3449,-545.6714"/>
</g>
<!-- O_5 -->
<g id="node6" class="node">
<title>O_5</title>
<ellipse fill="none" stroke="#b3e2ef" cx="241" cy="-90" rx="27" ry="18"/>
<text text-anchor="middle" x="241" y="-85.8" font-family="Times,serif" font-size="14.00" fill="#b3e2ef">O_5</text>
</g>
<!-- X_0&#45;&gt;O_5 -->
<g id="edge2" class="edge">
<title>X_0&#45;&gt;O_5</title>
<path fill="none" stroke="#b3e2ef" d="M320.7423,-585.1787C367.0518,-567.999 464,-525.0113 464,-450 464,-450 464,-450 464,-306 464,-200.7411 334.4937,-132.1935 272.7532,-104.2575"/>
<polygon fill="#b3e2ef" stroke="#b3e2ef" points="274.0157,-100.9885 263.4562,-100.1233 271.1713,-107.3846 274.0157,-100.9885"/>
</g>
<!-- O_7 -->
<g id="node8" class="node">
<title>O_7</title>
<ellipse fill="none" stroke="#b3e2ef" cx="185" cy="-234" rx="27" ry="18"/>
<text text-anchor="middle" x="185" y="-229.8" font-family="Times,serif" font-size="14.00" fill="#b3e2ef">O_7</text>
</g>
<!-- X_0&#45;&gt;O_7 -->
<g id="edge3" class="edge">
<title>X_0&#45;&gt;O_7</title>
<path fill="none" stroke="#b3e2ef" d="M272.5019,-586.2741C232.4191,-570.5271 155.8785,-530.8051 132,-468 104.2172,-394.9256 141.498,-302.1104 166.5011,-258.6036"/>
<polygon fill="#b3e2ef" stroke="#b3e2ef" points="169.6123,-260.2219 171.7761,-249.8504 163.6168,-256.6088 169.6123,-260.2219"/>
</g>
<!-- O_8 -->
<g id="node9" class="node">
<title>O_8</title>
<ellipse fill="none" stroke="#b3e2ef" cx="361" cy="-378" rx="27" ry="18"/>
<text text-anchor="middle" x="361" y="-373.8" font-family="Times,serif" font-size="14.00" fill="#b3e2ef">O_8</text>
</g>
<!-- X_0&#45;&gt;O_8 -->
<g id="edge4" class="edge">
<title>X_0&#45;&gt;O_8</title>
<path fill="none" stroke="#b3e2ef" d="M298.4006,-575.9555C306.169,-537.9528 332.1441,-449.5081 348.4099,-404.8376"/>
<polygon fill="#b3e2ef" stroke="#b3e2ef" points="351.7752,-405.8321 352.021,-395.2401 345.2236,-403.367 351.7752,-405.8321"/>
</g>
<!-- X_1 -->
<g id="node2" class="node">
<title>X_1</title>
<ellipse fill="none" stroke="#b3e2ef" cx="185" cy="-18" rx="27" ry="18"/>
<text text-anchor="middle" x="185" y="-13.8" font-family="Times,serif" font-size="14.00" fill="#b3e2ef">X_1</text>
</g>
<!-- X_1&#45;&gt;O_3 -->
<g id="edge5" class="edge">
<title>X_1&#45;&gt;O_3</title>
<path fill="none" stroke="#b3e2ef" d="M161.2577,-26.8213C114.9482,-44.001 18,-86.9887 18,-162 18,-306 18,-306 18,-306 18,-411.2589 147.5063,-479.8065 209.2468,-507.7425"/>
<polygon fill="#b3e2ef" stroke="#b3e2ef" points="207.9843,-511.0115 218.5438,-511.8767 210.8287,-504.6154 207.9843,-511.0115"/>
</g>
<!-- X_1&#45;&gt;O_5 -->
<g id="edge6" class="edge">
<title>X_1&#45;&gt;O_5</title>
<path fill="none" stroke="#b3e2ef" d="M201.6947,-32.3649C209.9873,-41.4964 219.7107,-53.5802 227.5267,-64.3239"/>
<polygon fill="#b3e2ef" stroke="#b3e2ef" points="224.7088,-66.4015 233.3222,-72.5708 230.4361,-62.3766 224.7088,-66.4015"/>
</g>
<!-- X_1&#45;&gt;O_7 -->
<g id="edge7" class="edge">
<title>X_1&#45;&gt;O_7</title>
<path fill="none" stroke="#b3e2ef" d="M188.9272,-35.8413C192.4058,-73.3969 192.6693,-160.8523 189.7178,-205.9686"/>
<polygon fill="#b3e2ef" stroke="#b3e2ef" points="186.227,-205.7155 188.9459,-215.9555 193.2062,-206.2549 186.227,-205.7155"/>
</g>
<!-- X_1&#45;&gt;O_8 -->
<g id="edge8" class="edge">
<title>X_1&#45;&gt;O_8</title>
<path fill="none" stroke="#b3e2ef" d="M208.9094,-26.5097C247.1334,-43.3175 319.7669,-84.3849 350,-144 386.7167,-216.3997 389.1428,-243.2317 381,-324 380.0757,-333.1683 378.2899,-343.0812 375.9424,-351.8808"/>
<polygon fill="#b3e2ef" stroke="#b3e2ef" points="372.5512,-351.0006 372.9466,-361.588 379.24,-353.0649 372.5512,-351.0006"/>
</g>
<!-- X_2 -->
<g id="node3" class="node">
<title>X_2</title>
<ellipse fill="none" stroke="#b3e2ef" cx="305" cy="-162" rx="27" ry="18"/>
<text text-anchor="middle" x="305" y="-157.8" font-family="Times,serif" font-size="14.00" fill="#b3e2ef">X_2</text>
</g>
<!-- X_2&#45;&gt;O_3 -->
<g id="edge9" class="edge">
<title>X_2&#45;&gt;O_3</title>
<path fill="none" stroke="#b3e2ef" d="M308.5569,-179.926C311.0088,-227.619 302.3013,-361.2654 273,-468 270.2371,-478.0644 266.0034,-488.7192 261.3417,-497.8811"/>
<polygon fill="#b3e2ef" stroke="#b3e2ef" points="258.1817,-496.3617 256.3725,-506.8009 264.2968,-499.7684 258.1817,-496.3617"/>
</g>
<!-- X_2&#45;&gt;O_5 -->
<g id="edge10" class="edge">
<title>X_2&#45;&gt;O_5</title>
<path fill="none" stroke="#b3e2ef" d="M287.2021,-148.1177C277.664,-138.8045 266.1811,-126.267 256.9451,-115.221"/>
<polygon fill="#b3e2ef" stroke="#b3e2ef" points="259.4088,-112.7024 250.3898,-107.1429 253.9733,-117.1133 259.4088,-112.7024"/>
</g>
<!-- X_2&#45;&gt;O_7 -->
<g id="edge11" class="edge">
<title>X_2&#45;&gt;O_7</title>
<path fill="none" stroke="#b3e2ef" d="M287.2279,-175.943C268.471,-188.1861 238.897,-205.9671 216.2819,-218.6205"/>
<polygon fill="#b3e2ef" stroke="#b3e2ef" points="214.4441,-215.637 207.3771,-223.5306 217.8241,-221.7669 214.4441,-215.637"/>
</g>
<!-- X_2&#45;&gt;O_8 -->
<g id="edge12" class="edge">
<title>X_2&#45;&gt;O_8</title>
<path fill="none" stroke="#b3e2ef" d="M320.0811,-177.2844C326.4631,-187.9306 332.8201,-202.5735 337,-216 351.2572,-261.7968 360.9627,-316.8338 363.4804,-349.533"/>
<polygon fill="#b3e2ef" stroke="#b3e2ef" points="359.9973,-349.9333 364.0548,-359.7203 366.9862,-349.5391 359.9973,-349.9333"/>
</g>
<!-- O_3&#45;&gt;X_0 -->
<g id="edge13" class="edge">
<title>O_3&#45;&gt;X_0</title>
<path fill="none" stroke="#b3e2ef" d="M257.6947,-536.3649C265.9873,-545.4964 275.7107,-557.5802 283.5267,-568.3239"/>
<polygon fill="#b3e2ef" stroke="#b3e2ef" points="280.7088,-570.4015 289.3222,-576.5708 286.4361,-566.3766 280.7088,-570.4015"/>
</g>
<!-- O_3&#45;&gt;X_1 -->
<g id="edge14" class="edge">
<title>O_3&#45;&gt;X_1</title>
<path fill="none" stroke="#b3e2ef" d="M216.3089,-514.462C154.6324,-492.2011 0,-421.0174 0,-306 0,-306 0,-306 0,-162 0,-87.4506 95.758,-44.5316 149.6204,-27.1416"/>
<polygon fill="#b3e2ef" stroke="#b3e2ef" points="150.955,-30.3925 159.4756,-24.0957 148.888,-23.7046 150.955,-30.3925"/>
</g>
<!-- O_3&#45;&gt;X_2 -->
<g id="edge15" class="edge">
<title>O_3&#45;&gt;X_2</title>
<path fill="none" stroke="#b3e2ef" d="M242.2131,-503.9456C245.9762,-493.6561 251.601,-480.3813 255,-468 282.4699,-367.9364 291.8399,-244.2197 298.668,-189.8481"/>
<polygon fill="#b3e2ef" stroke="#b3e2ef" points="302.1382,-190.3037 300.0043,-179.926 295.2008,-189.3693 302.1382,-190.3037"/>
</g>
<!-- X_4 -->
<g id="node5" class="node">
<title>X_4</title>
<ellipse fill="none" stroke="#b3e2ef" cx="241" cy="-306" rx="27" ry="18"/>
<text text-anchor="middle" x="241" y="-301.8" font-family="Times,serif" font-size="14.00" fill="#b3e2ef">X_4</text>
</g>
<!-- O_3&#45;&gt;X_4 -->
<g id="edge16" class="edge">
<title>O_3&#45;&gt;X_4</title>
<path fill="none" stroke="#b3e2ef" d="M237.0541,-503.9555C233.5943,-466.3001 233.3361,-379.1207 236.2795,-334.0734"/>
<polygon fill="#b3e2ef" stroke="#b3e2ef" points="239.7892,-334.0819 237.0728,-323.8413 232.8102,-333.5407 239.7892,-334.0819"/>
</g>
<!-- X_6 -->
<g id="node7" class="node">
<title>X_6</title>
<ellipse fill="none" stroke="#b3e2ef" cx="177" cy="-450" rx="27" ry="18"/>
<text text-anchor="middle" x="177" y="-445.8" font-family="Times,serif" font-size="14.00" fill="#b3e2ef">X_6</text>
</g>
<!-- O_3&#45;&gt;X_6 -->
<g id="edge17" class="edge">
<title>O_3&#45;&gt;X_6</title>
<path fill="none" stroke="#b3e2ef" d="M223.2021,-508.1177C213.664,-498.8045 202.1811,-486.267 192.9451,-475.221"/>
<polygon fill="#b3e2ef" stroke="#b3e2ef" points="195.4088,-472.7024 186.3898,-467.1429 189.9733,-477.1133 195.4088,-472.7024"/>
</g>
<!-- X_4&#45;&gt;O_3 -->
<g id="edge18" class="edge">
<title>X_4&#45;&gt;O_3</title>
<path fill="none" stroke="#b3e2ef" d="M244.9272,-323.8413C248.4058,-361.3969 248.6693,-448.8523 245.7178,-493.9686"/>
<polygon fill="#b3e2ef" stroke="#b3e2ef" points="242.227,-493.7155 244.9459,-503.9555 249.2062,-494.2549 242.227,-493.7155"/>
</g>
<!-- X_4&#45;&gt;O_5 -->
<g id="edge19" class="edge">
<title>X_4&#45;&gt;O_5</title>
<path fill="none" stroke="#b3e2ef" d="M237.0541,-287.9555C233.5943,-250.3001 233.3361,-163.1207 236.2795,-118.0734"/>
<polygon fill="#b3e2ef" stroke="#b3e2ef" points="239.7892,-118.0819 237.0728,-107.8413 232.8102,-117.5407 239.7892,-118.0819"/>
</g>
<!-- X_4&#45;&gt;O_7 -->
<g id="edge20" class="edge">
<title>X_4&#45;&gt;O_7</title>
<path fill="none" stroke="#b3e2ef" d="M224.4325,-291.7751C216.1383,-282.6559 206.3904,-270.5507 198.547,-259.7773"/>
<polygon fill="#b3e2ef" stroke="#b3e2ef" points="201.3449,-257.6714 192.7292,-251.5053 195.6191,-261.6984 201.3449,-257.6714"/>
</g>
<!-- X_4&#45;&gt;O_8 -->
<g id="edge21" class="edge">
<title>X_4&#45;&gt;O_8</title>
<path fill="none" stroke="#b3e2ef" d="M263.1467,-316.3446C283.4417,-327.3358 313.2178,-344.9687 334.6824,-358.5676"/>
<polygon fill="#b3e2ef" stroke="#b3e2ef" points="333.0157,-361.6569 343.3208,-364.1177 336.7995,-355.7676 333.0157,-361.6569"/>
</g>
<!-- O_5&#45;&gt;X_0 -->
<g id="edge22" class="edge">
<title>O_5&#45;&gt;X_0</title>
<path fill="none" stroke="#b3e2ef" d="M265.6911,-97.538C327.3676,-119.7989 482,-190.9826 482,-306 482,-450 482,-450 482,-450 482,-524.5494 386.242,-567.4684 332.3796,-584.8584"/>
<polygon fill="#b3e2ef" stroke="#b3e2ef" points="331.045,-581.6075 322.5244,-587.9043 333.112,-588.2954 331.045,-581.6075"/>
</g>
<!-- O_5&#45;&gt;X_1 -->
<g id="edge23" class="edge">
<title>O_5&#45;&gt;X_1</title>
<path fill="none" stroke="#b3e2ef" d="M224.4325,-75.7751C216.1383,-66.6559 206.3904,-54.5507 198.547,-43.7773"/>
<polygon fill="#b3e2ef" stroke="#b3e2ef" points="201.3449,-41.6714 192.7292,-35.5053 195.6191,-45.6984 201.3449,-41.6714"/>
</g>
<!-- O_5&#45;&gt;X_2 -->
<g id="edge24" class="edge">
<title>O_5&#45;&gt;X_2</title>
<path fill="none" stroke="#b3e2ef" d="M258.9591,-104.0399C268.4964,-113.3671 279.946,-125.8771 289.1454,-136.8873"/>
<polygon fill="#b3e2ef" stroke="#b3e2ef" points="286.6558,-139.3742 295.6728,-144.937 292.0929,-134.9653 286.6558,-139.3742"/>
</g>
<!-- O_5&#45;&gt;X_4 -->
<g id="edge25" class="edge">
<title>O_5&#45;&gt;X_4</title>
<path fill="none" stroke="#b3e2ef" d="M244.9272,-107.8413C248.4058,-145.3969 248.6693,-232.8523 245.7178,-277.9686"/>
<polygon fill="#b3e2ef" stroke="#b3e2ef" points="242.227,-277.7155 244.9459,-287.9555 249.2062,-278.2549 242.227,-277.7155"/>
</g>
<!-- O_5&#45;&gt;X_6 -->
<g id="edge26" class="edge">
<title>O_5&#45;&gt;X_6</title>
<path fill="none" stroke="#b3e2ef" d="M229.4024,-106.7101C209.8654,-129.0879 172.6166,-171.195 158,-216 134.6224,-287.6607 159.3933,-377.3679 171.7654,-422.0344"/>
<polygon fill="#b3e2ef" stroke="#b3e2ef" points="168.4453,-423.1614 174.4707,-431.8761 175.1949,-421.306 168.4453,-423.1614"/>
</g>
<!-- X_6&#45;&gt;O_3 -->
<g id="edge27" class="edge">
<title>X_6&#45;&gt;O_3</title>
<path fill="none" stroke="#b3e2ef" d="M194.9591,-464.0399C204.4964,-473.3671 215.946,-485.8771 225.1454,-496.8873"/>
<polygon fill="#b3e2ef" stroke="#b3e2ef" points="222.6558,-499.3742 231.6728,-504.937 228.0929,-494.9653 222.6558,-499.3742"/>
</g>
<!-- X_6&#45;&gt;O_5 -->
<g id="edge28" class="edge">
<title>X_6&#45;&gt;O_5</title>
<path fill="none" stroke="#b3e2ef" d="M165.6455,-433.3561C146.4604,-394.3446 114.431,-294.3781 140,-216 154.023,-173.0146 188.8773,-132.5125 213.9281,-109.533"/>
<polygon fill="#b3e2ef" stroke="#b3e2ef" points="216.4873,-111.943 221.6782,-102.7069 211.8606,-106.69 216.4873,-111.943"/>
</g>
<!-- X_6&#45;&gt;O_7 -->
<g id="edge29" class="edge">
<title>X_6&#45;&gt;O_7</title>
<path fill="none" stroke="#b3e2ef" d="M173.7224,-431.9555C171.6529,-394.2205 174.6405,-306.7518 179.269,-261.7882"/>
<polygon fill="#b3e2ef" stroke="#b3e2ef" points="182.7474,-262.1755 180.4121,-251.8413 175.7932,-261.3763 182.7474,-262.1755"/>
</g>
<!-- X_6&#45;&gt;O_8 -->
<g id="edge30" class="edge">
<title>X_6&#45;&gt;O_8</title>
<path fill="none" stroke="#b3e2ef" d="M199.1945,-439.3762C231.0713,-425.9823 289.627,-403.0534 326.9619,-389.3329"/>
<polygon fill="#b3e2ef" stroke="#b3e2ef" points="328.2277,-392.5969 336.4283,-385.8886 325.8342,-386.0188 328.2277,-392.5969"/>
</g>
<!-- O_7&#45;&gt;X_0 -->
<g id="edge31" class="edge">
<title>O_7&#45;&gt;X_0</title>
<path fill="none" stroke="#b3e2ef" d="M179.9742,-251.8989C163.785,-291.8656 120.6928,-390.9161 150,-468 170.4432,-521.7698 229.4863,-558.6203 266.3641,-577.9919"/>
<polygon fill="#b3e2ef" stroke="#b3e2ef" points="265.1807,-581.3183 275.6762,-582.766 268.3743,-575.0893 265.1807,-581.3183"/>
</g>
<!-- O_7&#45;&gt;X_1 -->
<g id="edge32" class="edge">
<title>O_7&#45;&gt;X_1</title>
<path fill="none" stroke="#b3e2ef" d="M181.0541,-215.9555C177.5943,-178.3001 177.3361,-91.1207 180.2795,-46.0734"/>
<polygon fill="#b3e2ef" stroke="#b3e2ef" points="183.7892,-46.0819 181.0728,-35.8413 176.8102,-45.5407 183.7892,-46.0819"/>
</g>
<!-- O_7&#45;&gt;X_2 -->
<g id="edge33" class="edge">
<title>O_7&#45;&gt;X_2</title>
<path fill="none" stroke="#b3e2ef" d="M202.6792,-220.1177C221.4896,-207.8345 251.2504,-189.9427 273.9296,-177.2612"/>
<polygon fill="#b3e2ef" stroke="#b3e2ef" points="275.7837,-180.2358 282.8533,-172.3446 272.4057,-174.1048 275.7837,-180.2358"/>
</g>
<!-- O_7&#45;&gt;X_4 -->
<g id="edge34" class="edge">
<title>O_7&#45;&gt;X_4</title>
<path fill="none" stroke="#b3e2ef" d="M201.6947,-248.3649C209.9873,-257.4964 219.7107,-269.5802 227.5267,-280.3239"/>
<polygon fill="#b3e2ef" stroke="#b3e2ef" points="224.7088,-282.4015 233.3222,-288.5708 230.4361,-278.3766 224.7088,-282.4015"/>
</g>
<!-- O_7&#45;&gt;X_6 -->
<g id="edge35" class="edge">
<title>O_7&#45;&gt;X_6</title>
<path fill="none" stroke="#b3e2ef" d="M188.2831,-252.1451C190.3385,-289.8741 187.3649,-377.0083 182.7532,-421.9956"/>
<polygon fill="#b3e2ef" stroke="#b3e2ef" points="179.2731,-421.6225 181.6142,-431.9555 186.2278,-422.4179 179.2731,-421.6225"/>
</g>
<!-- O_8&#45;&gt;X_0 -->
<g id="edge36" class="edge">
<title>O_8&#45;&gt;X_0</title>
<path fill="none" stroke="#b3e2ef" d="M359.6085,-395.9997C351.8562,-433.9543 325.8944,-522.3653 309.6202,-567.0798"/>
<polygon fill="#b3e2ef" stroke="#b3e2ef" points="306.2506,-566.0969 306.0067,-576.6889 312.8026,-568.5608 306.2506,-566.0969"/>
</g>
<!-- O_8&#45;&gt;X_1 -->
<g id="edge37" class="edge">
<title>O_8&#45;&gt;X_1</title>
<path fill="none" stroke="#b3e2ef" d="M357.7665,-359.6463C359.1071,-349.2631 361.7908,-335.9943 363,-324 371.1428,-243.2317 368.7167,-216.3997 332,-144 306.0538,-92.838 248.8791,-55.3367 213.8257,-35.1064"/>
<polygon fill="#b3e2ef" stroke="#b3e2ef" points="215.4216,-31.9879 204.9965,-30.0993 211.9685,-38.0769 215.4216,-31.9879"/>
</g>
<!-- O_8&#45;&gt;X_2 -->
<g id="edge38" class="edge">
<title>O_8&#45;&gt;X_2</title>
<path fill="none" stroke="#b3e2ef" d="M353.2114,-360.6874C345.3181,-330.7387 335.0395,-267.5219 319,-216 316.2868,-207.2846 312.6562,-198.0567 309.4681,-189.7421"/>
<polygon fill="#b3e2ef" stroke="#b3e2ef" points="312.6641,-188.2954 305.8901,-180.1489 306.1054,-190.7416 312.6641,-188.2954"/>
</g>
<!-- O_8&#45;&gt;X_4 -->
<g id="edge39" class="edge">
<title>O_8&#45;&gt;X_4</title>
<path fill="none" stroke="#b3e2ef" d="M338.6229,-367.5306C318.3533,-356.5418 288.7591,-339.0143 267.3803,-325.4721"/>
<polygon fill="#b3e2ef" stroke="#b3e2ef" points="269.0776,-322.4025 258.7721,-319.943 265.2945,-328.2922 269.0776,-322.4025"/>
</g>
<!-- O_8&#45;&gt;X_6 -->
<g id="edge40" class="edge">
<title>O_8&#45;&gt;X_6</title>
<path fill="none" stroke="#b3e2ef" d="M338.8027,-388.6251C306.8872,-402.035 248.2323,-425.0016 210.9048,-438.7161"/>
<polygon fill="#b3e2ef" stroke="#b3e2ef" points="209.6443,-435.4502 201.4431,-442.1577 212.0371,-442.0285 209.6443,-435.4502"/>
</g>
</g>
</svg>
