<?xml version="1.0" encoding="UTF-8" standalone="no"?>
<!DOCTYPE svg PUBLIC "-//W3C//DTD SVG 1.1//EN"
 "http://www.w3.org/Graphics/SVG/1.1/DTD/svg11.dtd">
<!-- Generated by graphviz version 2.40.1 (20161225.0304)
 -->
<!-- Title: G Pages: 1 -->
<svg width="653pt" height="620pt"
 viewBox="0.00 0.00 652.52 620.00" xmlns="http://www.w3.org/2000/svg" xmlns:xlink="http://www.w3.org/1999/xlink">
<g id="graph0" class="graph" transform="scale(1 1) rotate(0) translate(4 616)">
<title>G</title>
<polygon fill="#101e3a" stroke="transparent" points="-4,4 -4,-616 648.517,-616 648.517,4 -4,4"/>
<!-- X4 -->
<g id="node1" class="node">
<title>X4</title>
<ellipse fill="none" stroke="#b3e2ef" cx="497.7585" cy="-594" rx="27" ry="18"/>
<text text-anchor="middle" x="497.7585" y="-589.8" font-family="Times,serif" font-size="14.00" fill="#b3e2ef">X4</text>
</g>
<!-- O3_1 -->
<g id="node2" class="node">
<title>O3_1</title>
<ellipse fill="none" stroke="#b3e2ef" cx="380.7585" cy="-522" rx="29.5189" ry="18"/>
<text text-anchor="middle" x="380.7585" y="-517.8" font-family="Times,serif" font-size="14.00" fill="#b3e2ef">O3_1</text>
</g>
<!-- X4&#45;&gt;O3_1 -->
<g id="edge1" class="edge">
<title>X4&#45;&gt;O3_1</title>
<path fill="none" stroke="#b3e2ef" d="M477.911,-581.7862C459.4278,-570.4119 431.6268,-553.3036 410.4935,-540.2985"/>
<polygon fill="#b3e2ef" stroke="#b3e2ef" points="412.2422,-537.265 401.8912,-535.0048 408.5735,-543.2266 412.2422,-537.265"/>
</g>
<!-- O5_1 -->
<g id="node3" class="node">
<title>O5_1</title>
<ellipse fill="none" stroke="#b3e2ef" cx="458.7585" cy="-522" rx="29.5189" ry="18"/>
<text text-anchor="middle" x="458.7585" y="-517.8" font-family="Times,serif" font-size="14.00" fill="#b3e2ef">O5_1</text>
</g>
<!-- X4&#45;&gt;O5_1 -->
<g id="edge2" class="edge">
<title>X4&#45;&gt;O5_1</title>
<path fill="none" stroke="#b3e2ef" d="M488.516,-576.937C483.9209,-568.4537 478.2635,-558.0092 473.1197,-548.513"/>
<polygon fill="#b3e2ef" stroke="#b3e2ef" points="476.0459,-546.5666 468.2055,-539.4407 469.8909,-549.9006 476.0459,-546.5666"/>
</g>
<!-- O7_1 -->
<g id="node4" class="node">
<title>O7_1</title>
<ellipse fill="none" stroke="#b3e2ef" cx="536.7585" cy="-522" rx="29.5189" ry="18"/>
<text text-anchor="middle" x="536.7585" y="-517.8" font-family="Times,serif" font-size="14.00" fill="#b3e2ef">O7_1</text>
</g>
<!-- X4&#45;&gt;O7_1 -->
<g id="edge3" class="edge">
<title>X4&#45;&gt;O7_1</title>
<path fill="none" stroke="#b3e2ef" d="M507.0009,-576.937C511.5961,-568.4537 517.2535,-558.0092 522.3973,-548.513"/>
<polygon fill="#b3e2ef" stroke="#b3e2ef" points="525.6261,-549.9006 527.3115,-539.4407 519.471,-546.5666 525.6261,-549.9006"/>
</g>
<!-- O8_1 -->
<g id="node5" class="node">
<title>O8_1</title>
<ellipse fill="none" stroke="#b3e2ef" cx="614.7585" cy="-522" rx="29.5189" ry="18"/>
<text text-anchor="middle" x="614.7585" y="-517.8" font-family="Times,serif" font-size="14.00" fill="#b3e2ef">O8_1</text>
</g>
<!-- X4&#45;&gt;O8_1 -->
<g id="edge4" class="edge">
<title>X4&#45;&gt;O8_1</title>
<path fill="none" stroke="#b3e2ef" d="M517.6059,-581.7862C536.0892,-570.4119 563.8902,-553.3036 585.0235,-540.2985"/>
<polygon fill="#b3e2ef" stroke="#b3e2ef" points="586.9435,-543.2266 593.6257,-535.0048 583.2748,-537.265 586.9435,-543.2266"/>
</g>
<!-- X0_2 -->
<g id="node6" class="node">
<title>X0_2</title>
<ellipse fill="none" stroke="#b3e2ef" cx="263.7585" cy="-450" rx="29.5189" ry="18"/>
<text text-anchor="middle" x="263.7585" y="-445.8" font-family="Times,serif" font-size="14.00" fill="#b3e2ef">X0_2</text>
</g>
<!-- O3_1&#45;&gt;X0_2 -->
<g id="edge5" class="edge">
<title>O3_1&#45;&gt;X0_2</title>
<path fill="none" stroke="#b3e2ef" d="M359.8412,-509.1278C341.4047,-497.7823 314.3318,-481.122 293.6184,-468.3753"/>
<polygon fill="#b3e2ef" stroke="#b3e2ef" points="295.2401,-465.2637 284.8891,-463.0035 291.5714,-471.2253 295.2401,-465.2637"/>
</g>
<!-- X1_2 -->
<g id="node7" class="node">
<title>X1_2</title>
<ellipse fill="none" stroke="#b3e2ef" cx="341.7585" cy="-450" rx="29.5189" ry="18"/>
<text text-anchor="middle" x="341.7585" y="-445.8" font-family="Times,serif" font-size="14.00" fill="#b3e2ef">X1_2</text>
</g>
<!-- O3_1&#45;&gt;X1_2 -->
<g id="edge6" class="edge">
<title>O3_1&#45;&gt;X1_2</title>
<path fill="none" stroke="#b3e2ef" d="M371.3177,-504.5708C366.7188,-496.0807 361.0921,-485.6929 355.9867,-476.2674"/>
<polygon fill="#b3e2ef" stroke="#b3e2ef" points="358.9528,-474.3946 351.1124,-467.2687 352.7977,-477.7286 358.9528,-474.3946"/>
</g>
<!-- X2_2 -->
<g id="node8" class="node">
<title>X2_2</title>
<ellipse fill="none" stroke="#b3e2ef" cx="419.7585" cy="-450" rx="29.5189" ry="18"/>
<text text-anchor="middle" x="419.7585" y="-445.8" font-family="Times,serif" font-size="14.00" fill="#b3e2ef">X2_2</text>
</g>
<!-- O3_1&#45;&gt;X2_2 -->
<g id="edge7" class="edge">
<title>O3_1&#45;&gt;X2_2</title>
<path fill="none" stroke="#b3e2ef" d="M390.1993,-504.5708C394.7981,-496.0807 400.4249,-485.6929 405.5303,-476.2674"/>
<polygon fill="#b3e2ef" stroke="#b3e2ef" points="408.7193,-477.7286 410.4046,-467.2687 402.5642,-474.3946 408.7193,-477.7286"/>
</g>
<!-- X5_2 -->
<g id="node9" class="node">
<title>X5_2</title>
<ellipse fill="none" stroke="#b3e2ef" cx="497.7585" cy="-450" rx="29.5189" ry="18"/>
<text text-anchor="middle" x="497.7585" y="-445.8" font-family="Times,serif" font-size="14.00" fill="#b3e2ef">X5_2</text>
</g>
<!-- O3_1&#45;&gt;X5_2 -->
<g id="edge8" class="edge">
<title>O3_1&#45;&gt;X5_2</title>
<path fill="none" stroke="#b3e2ef" d="M401.6757,-509.1278C420.1123,-497.7823 447.1852,-481.122 467.8986,-468.3753"/>
<polygon fill="#b3e2ef" stroke="#b3e2ef" points="469.9456,-471.2253 476.6278,-463.0035 466.2769,-465.2637 469.9456,-471.2253"/>
</g>
<!-- O5_3 -->
<g id="node10" class="node">
<title>O5_3</title>
<ellipse fill="none" stroke="#b3e2ef" cx="185.7585" cy="-378" rx="29.5189" ry="18"/>
<text text-anchor="middle" x="185.7585" y="-373.8" font-family="Times,serif" font-size="14.00" fill="#b3e2ef">O5_3</text>
</g>
<!-- X0_2&#45;&gt;O5_3 -->
<g id="edge9" class="edge">
<title>X0_2&#45;&gt;O5_3</title>
<path fill="none" stroke="#b3e2ef" d="M247.2167,-434.7307C236.3583,-424.7075 221.9766,-411.4321 209.8555,-400.2434"/>
<polygon fill="#b3e2ef" stroke="#b3e2ef" points="211.9985,-397.4583 202.2764,-393.2473 207.2505,-402.602 211.9985,-397.4583"/>
</g>
<!-- O7_3 -->
<g id="node11" class="node">
<title>O7_3</title>
<ellipse fill="none" stroke="#b3e2ef" cx="263.7585" cy="-378" rx="29.5189" ry="18"/>
<text text-anchor="middle" x="263.7585" y="-373.8" font-family="Times,serif" font-size="14.00" fill="#b3e2ef">O7_3</text>
</g>
<!-- X0_2&#45;&gt;O7_3 -->
<g id="edge10" class="edge">
<title>X0_2&#45;&gt;O7_3</title>
<path fill="none" stroke="#b3e2ef" d="M263.7585,-431.8314C263.7585,-424.131 263.7585,-414.9743 263.7585,-406.4166"/>
<polygon fill="#b3e2ef" stroke="#b3e2ef" points="267.2586,-406.4132 263.7585,-396.4133 260.2586,-406.4133 267.2586,-406.4132"/>
</g>
<!-- O8_3 -->
<g id="node12" class="node">
<title>O8_3</title>
<ellipse fill="none" stroke="#b3e2ef" cx="341.7585" cy="-378" rx="29.5189" ry="18"/>
<text text-anchor="middle" x="341.7585" y="-373.8" font-family="Times,serif" font-size="14.00" fill="#b3e2ef">O8_3</text>
</g>
<!-- X0_2&#45;&gt;O8_3 -->
<g id="edge11" class="edge">
<title>X0_2&#45;&gt;O8_3</title>
<path fill="none" stroke="#b3e2ef" d="M280.3003,-434.7307C291.1586,-424.7075 305.5404,-411.4321 317.6614,-400.2434"/>
<polygon fill="#b3e2ef" stroke="#b3e2ef" points="320.2665,-402.602 325.2405,-393.2473 315.5185,-397.4583 320.2665,-402.602"/>
</g>
<!-- X1_4 -->
<g id="node13" class="node">
<title>X1_4</title>
<ellipse fill="none" stroke="#b3e2ef" cx="107.7585" cy="-306" rx="29.5189" ry="18"/>
<text text-anchor="middle" x="107.7585" y="-301.8" font-family="Times,serif" font-size="14.00" fill="#b3e2ef">X1_4</text>
</g>
<!-- O5_3&#45;&gt;X1_4 -->
<g id="edge12" class="edge">
<title>O5_3&#45;&gt;X1_4</title>
<path fill="none" stroke="#b3e2ef" d="M169.2167,-362.7307C158.3583,-352.7075 143.9766,-339.4321 131.8555,-328.2434"/>
<polygon fill="#b3e2ef" stroke="#b3e2ef" points="133.9985,-325.4583 124.2764,-321.2473 129.2505,-330.602 133.9985,-325.4583"/>
</g>
<!-- X2_4 -->
<g id="node14" class="node">
<title>X2_4</title>
<ellipse fill="none" stroke="#b3e2ef" cx="185.7585" cy="-306" rx="29.5189" ry="18"/>
<text text-anchor="middle" x="185.7585" y="-301.8" font-family="Times,serif" font-size="14.00" fill="#b3e2ef">X2_4</text>
</g>
<!-- O5_3&#45;&gt;X2_4 -->
<g id="edge13" class="edge">
<title>O5_3&#45;&gt;X2_4</title>
<path fill="none" stroke="#b3e2ef" d="M185.7585,-359.8314C185.7585,-352.131 185.7585,-342.9743 185.7585,-334.4166"/>
<polygon fill="#b3e2ef" stroke="#b3e2ef" points="189.2586,-334.4132 185.7585,-324.4133 182.2586,-334.4133 189.2586,-334.4132"/>
</g>
<!-- X5_4 -->
<g id="node15" class="node">
<title>X5_4</title>
<ellipse fill="none" stroke="#b3e2ef" cx="263.7585" cy="-306" rx="29.5189" ry="18"/>
<text text-anchor="middle" x="263.7585" y="-301.8" font-family="Times,serif" font-size="14.00" fill="#b3e2ef">X5_4</text>
</g>
<!-- O5_3&#45;&gt;X5_4 -->
<g id="edge14" class="edge">
<title>O5_3&#45;&gt;X5_4</title>
<path fill="none" stroke="#b3e2ef" d="M202.3003,-362.7307C213.1586,-352.7075 227.5404,-339.4321 239.6614,-328.2434"/>
<polygon fill="#b3e2ef" stroke="#b3e2ef" points="242.2665,-330.602 247.2405,-321.2473 237.5185,-325.4583 242.2665,-330.602"/>
</g>
<!-- O7_5 -->
<g id="node16" class="node">
<title>O7_5</title>
<ellipse fill="none" stroke="#b3e2ef" cx="68.7585" cy="-234" rx="29.5189" ry="18"/>
<text text-anchor="middle" x="68.7585" y="-229.8" font-family="Times,serif" font-size="14.00" fill="#b3e2ef">O7_5</text>
</g>
<!-- X1_4&#45;&gt;O7_5 -->
<g id="edge15" class="edge">
<title>X1_4&#45;&gt;O7_5</title>
<path fill="none" stroke="#b3e2ef" d="M98.3177,-288.5708C93.7188,-280.0807 88.0921,-269.6929 82.9867,-260.2674"/>
<polygon fill="#b3e2ef" stroke="#b3e2ef" points="85.9528,-258.3946 78.1124,-251.2687 79.7977,-261.7286 85.9528,-258.3946"/>
</g>
<!-- O8_5 -->
<g id="node17" class="node">
<title>O8_5</title>
<ellipse fill="none" stroke="#b3e2ef" cx="146.7585" cy="-234" rx="29.5189" ry="18"/>
<text text-anchor="middle" x="146.7585" y="-229.8" font-family="Times,serif" font-size="14.00" fill="#b3e2ef">O8_5</text>
</g>
<!-- X1_4&#45;&gt;O8_5 -->
<g id="edge16" class="edge">
<title>X1_4&#45;&gt;O8_5</title>
<path fill="none" stroke="#b3e2ef" d="M117.1993,-288.5708C121.7981,-280.0807 127.4249,-269.6929 132.5303,-260.2674"/>
<polygon fill="#b3e2ef" stroke="#b3e2ef" points="135.7193,-261.7286 137.4046,-251.2687 129.5642,-258.3946 135.7193,-261.7286"/>
</g>
<!-- X2_6 -->
<g id="node18" class="node">
<title>X2_6</title>
<ellipse fill="none" stroke="#b3e2ef" cx="29.7585" cy="-162" rx="29.5189" ry="18"/>
<text text-anchor="middle" x="29.7585" y="-157.8" font-family="Times,serif" font-size="14.00" fill="#b3e2ef">X2_6</text>
</g>
<!-- O7_5&#45;&gt;X2_6 -->
<g id="edge17" class="edge">
<title>O7_5&#45;&gt;X2_6</title>
<path fill="none" stroke="#b3e2ef" d="M59.3177,-216.5708C54.7188,-208.0807 49.0921,-197.6929 43.9867,-188.2674"/>
<polygon fill="#b3e2ef" stroke="#b3e2ef" points="46.9528,-186.3946 39.1124,-179.2687 40.7977,-189.7286 46.9528,-186.3946"/>
</g>
<!-- X5_6 -->
<g id="node19" class="node">
<title>X5_6</title>
<ellipse fill="none" stroke="#b3e2ef" cx="107.7585" cy="-162" rx="29.5189" ry="18"/>
<text text-anchor="middle" x="107.7585" y="-157.8" font-family="Times,serif" font-size="14.00" fill="#b3e2ef">X5_6</text>
</g>
<!-- O7_5&#45;&gt;X5_6 -->
<g id="edge18" class="edge">
<title>O7_5&#45;&gt;X5_6</title>
<path fill="none" stroke="#b3e2ef" d="M78.1993,-216.5708C82.7981,-208.0807 88.4249,-197.6929 93.5303,-188.2674"/>
<polygon fill="#b3e2ef" stroke="#b3e2ef" points="96.7193,-189.7286 98.4046,-179.2687 90.5642,-186.3946 96.7193,-189.7286"/>
</g>
<!-- O8_7 -->
<g id="node20" class="node">
<title>O8_7</title>
<ellipse fill="none" stroke="#b3e2ef" cx="29.7585" cy="-90" rx="29.5189" ry="18"/>
<text text-anchor="middle" x="29.7585" y="-85.8" font-family="Times,serif" font-size="14.00" fill="#b3e2ef">O8_7</text>
</g>
<!-- X2_6&#45;&gt;O8_7 -->
<g id="edge19" class="edge">
<title>X2_6&#45;&gt;O8_7</title>
<path fill="none" stroke="#b3e2ef" d="M29.7585,-143.8314C29.7585,-136.131 29.7585,-126.9743 29.7585,-118.4166"/>
<polygon fill="#b3e2ef" stroke="#b3e2ef" points="33.2586,-118.4132 29.7585,-108.4133 26.2586,-118.4133 33.2586,-118.4132"/>
</g>
<!-- X5_8 -->
<g id="node21" class="node">
<title>X5_8</title>
<ellipse fill="none" stroke="#b3e2ef" cx="29.7585" cy="-18" rx="29.5189" ry="18"/>
<text text-anchor="middle" x="29.7585" y="-13.8" font-family="Times,serif" font-size="14.00" fill="#b3e2ef">X5_8</text>
</g>
<!-- O8_7&#45;&gt;X5_8 -->
<g id="edge20" class="edge">
<title>O8_7&#45;&gt;X5_8</title>
<path fill="none" stroke="#b3e2ef" d="M29.7585,-71.8314C29.7585,-64.131 29.7585,-54.9743 29.7585,-46.4166"/>
<polygon fill="#b3e2ef" stroke="#b3e2ef" points="33.2586,-46.4132 29.7585,-36.4133 26.2586,-46.4133 33.2586,-46.4132"/>
</g>
</g>
</svg>
